<svg width="221" height="54" viewBox="0 0 221 54" fill="none" xmlns="http://www.w3.org/2000/svg">
<rect x="1" y="1" width="219" height="52" rx="8" stroke="black" stroke-width="2"/>
<path d="M70.575 39.42C69.105 40.845 67.5 40.62 65.955 39.945C64.32 39.255 62.82 39.225 61.095 39.945C58.935 40.875 57.795 40.605 56.505 39.42C49.185 31.875 50.265 20.385 58.575 19.965C60.6 20.07 62.01 21.075 63.195 21.165C64.965 20.805 66.66 19.77 68.55 19.905C70.815 20.085 72.525 20.985 73.65 22.605C68.97 25.41 70.08 31.575 74.37 33.3C73.515 35.55 72.405 37.785 70.56 39.435L70.575 39.42ZM63.045 19.875C62.82 16.53 65.535 13.77 68.655 13.5C69.09 17.37 65.145 20.25 63.045 19.875Z" fill="black"/>
<path d="M91.266 15.342C91.266 16.0233 91.0513 16.5647 90.622 16.966C90.1927 17.358 89.6187 17.61 88.9 17.722V17.778C89.74 17.89 90.3793 18.1513 90.818 18.562C91.2567 18.9727 91.476 19.5093 91.476 20.172C91.476 20.76 91.3267 21.278 91.028 21.726C90.7293 22.1647 90.2813 22.51 89.684 22.762C89.0867 23.014 88.34 23.14 87.444 23.14C86.9027 23.14 86.3847 23.098 85.89 23.014C85.4047 22.9393 84.952 22.7993 84.532 22.594V21.446C84.8213 21.586 85.1293 21.7073 85.456 21.81C85.792 21.9033 86.128 21.978 86.464 22.034C86.8 22.0807 87.122 22.104 87.43 22.104C88.326 22.104 89.0027 21.936 89.46 21.6C89.9267 21.264 90.16 20.788 90.16 20.172C90.16 19.5373 89.8893 19.0753 89.348 18.786C88.8067 18.4967 88.0507 18.352 87.08 18.352H85.652V17.302H87.01C87.6727 17.302 88.2187 17.2273 88.648 17.078C89.0867 16.9287 89.4133 16.7187 89.628 16.448C89.852 16.168 89.964 15.8413 89.964 15.468C89.964 14.964 89.7773 14.5767 89.404 14.306C89.0307 14.0353 88.5453 13.9 87.948 13.9C87.3227 13.9 86.8 13.9793 86.38 14.138C85.9693 14.2967 85.568 14.502 85.176 14.754L84.574 13.9C84.8353 13.704 85.134 13.5313 85.47 13.382C85.8153 13.2233 86.198 13.0973 86.618 13.004C87.038 12.9107 87.486 12.864 87.962 12.864C88.6807 12.864 89.2827 12.9713 89.768 13.186C90.2627 13.4007 90.636 13.6947 90.888 14.068C91.14 14.432 91.266 14.8567 91.266 15.342ZM96.2625 15.37C97.1771 15.37 97.8538 15.5707 98.2925 15.972C98.7311 16.3733 98.9505 17.0127 98.9505 17.89V23H98.0545L97.8165 21.936H97.7605C97.5458 22.2067 97.3218 22.4353 97.0885 22.622C96.8645 22.7993 96.6031 22.93 96.3045 23.014C96.0151 23.098 95.6605 23.14 95.2405 23.14C94.7925 23.14 94.3865 23.0607 94.0225 22.902C93.6678 22.7433 93.3878 22.5007 93.1825 22.174C92.9771 21.838 92.8745 21.418 92.8745 20.914C92.8745 20.1673 93.1685 19.5933 93.7565 19.192C94.3445 18.7813 95.2498 18.5573 96.4725 18.52L97.7465 18.478V18.03C97.7465 17.4047 97.6111 16.9707 97.3405 16.728C97.0698 16.4853 96.6871 16.364 96.1925 16.364C95.8005 16.364 95.4271 16.4247 95.0725 16.546C94.7178 16.658 94.3865 16.7887 94.0785 16.938L93.7005 16.014C94.0271 15.8367 94.4145 15.6873 94.8625 15.566C95.3105 15.4353 95.7771 15.37 96.2625 15.37ZM96.6265 19.374C95.6931 19.4113 95.0445 19.5607 94.6805 19.822C94.3258 20.0833 94.1485 20.452 94.1485 20.928C94.1485 21.348 94.2745 21.656 94.5265 21.852C94.7878 22.048 95.1191 22.146 95.5205 22.146C96.1551 22.146 96.6825 21.9733 97.1025 21.628C97.5225 21.2733 97.7325 20.732 97.7325 20.004V19.332L96.6265 19.374ZM105.846 15.496V16.532H102.5V23H101.268V15.496H105.846ZM110.895 15.356C111.819 15.356 112.561 15.678 113.121 16.322C113.69 16.966 113.975 17.9367 113.975 19.234C113.975 20.0833 113.844 20.802 113.583 21.39C113.331 21.9687 112.971 22.4073 112.505 22.706C112.047 22.9953 111.506 23.14 110.881 23.14C110.498 23.14 110.157 23.0887 109.859 22.986C109.56 22.8833 109.303 22.7527 109.089 22.594C108.883 22.426 108.706 22.244 108.557 22.048H108.473C108.491 22.2067 108.51 22.4073 108.529 22.65C108.547 22.8927 108.557 23.1027 108.557 23.28V26.36H107.325V15.496H108.333L108.501 16.518H108.557C108.706 16.3033 108.883 16.1073 109.089 15.93C109.303 15.7527 109.555 15.6127 109.845 15.51C110.143 15.4073 110.493 15.356 110.895 15.356ZM110.671 16.392C110.167 16.392 109.761 16.49 109.453 16.686C109.145 16.8727 108.921 17.1573 108.781 17.54C108.641 17.9227 108.566 18.408 108.557 18.996V19.234C108.557 19.85 108.622 20.3727 108.753 20.802C108.883 21.2313 109.103 21.558 109.411 21.782C109.728 22.006 110.157 22.118 110.699 22.118C111.156 22.118 111.529 21.992 111.819 21.74C112.117 21.488 112.337 21.1473 112.477 20.718C112.626 20.2793 112.701 19.78 112.701 19.22C112.701 18.3613 112.533 17.6753 112.197 17.162C111.87 16.6487 111.361 16.392 110.671 16.392ZM114.625 15.496H115.941L117.565 19.766C117.659 20.018 117.743 20.2607 117.817 20.494C117.901 20.7273 117.976 20.956 118.041 21.18C118.107 21.3947 118.158 21.6047 118.195 21.81H118.251C118.307 21.5767 118.396 21.2733 118.517 20.9C118.639 20.5173 118.765 20.1347 118.895 19.752L120.421 15.496H121.751L118.517 24.036C118.34 24.5027 118.13 24.9087 117.887 25.254C117.654 25.6087 117.365 25.8793 117.019 26.066C116.683 26.262 116.273 26.36 115.787 26.36C115.563 26.36 115.367 26.346 115.199 26.318C115.031 26.2993 114.887 26.276 114.765 26.248V25.268C114.868 25.2867 114.989 25.3053 115.129 25.324C115.279 25.3427 115.433 25.352 115.591 25.352C115.881 25.352 116.128 25.296 116.333 25.184C116.548 25.0813 116.73 24.9273 116.879 24.722C117.029 24.526 117.155 24.2927 117.257 24.022L117.649 23.028L114.625 15.496ZM124.912 15.356C125.481 15.356 125.976 15.4353 126.396 15.594C126.816 15.7433 127.143 15.9673 127.376 16.266C127.609 16.5553 127.726 16.91 127.726 17.33C127.726 17.7873 127.6 18.1513 127.348 18.422C127.096 18.6833 126.751 18.8747 126.312 18.996V19.052C126.611 19.136 126.886 19.2527 127.138 19.402C127.39 19.5513 127.591 19.7473 127.74 19.99C127.899 20.2327 127.978 20.5453 127.978 20.928C127.978 21.3387 127.861 21.712 127.628 22.048C127.404 22.384 127.054 22.65 126.578 22.846C126.111 23.042 125.509 23.14 124.772 23.14C124.417 23.14 124.077 23.1213 123.75 23.084C123.433 23.0467 123.143 22.9907 122.882 22.916C122.63 22.8413 122.406 22.7527 122.21 22.65V21.544C122.527 21.6933 122.901 21.8287 123.33 21.95C123.769 22.0713 124.245 22.132 124.758 22.132C125.131 22.132 125.467 22.09 125.766 22.006C126.074 21.922 126.317 21.7913 126.494 21.614C126.671 21.4273 126.76 21.1753 126.76 20.858C126.76 20.5687 126.681 20.3353 126.522 20.158C126.363 19.9713 126.125 19.8313 125.808 19.738C125.5 19.6447 125.103 19.598 124.618 19.598H123.61V18.59H124.422C125.066 18.59 125.579 18.506 125.962 18.338C126.354 18.1607 126.55 17.862 126.55 17.442C126.55 17.0873 126.401 16.8213 126.102 16.644C125.813 16.4667 125.393 16.378 124.842 16.378C124.431 16.378 124.067 16.42 123.75 16.504C123.442 16.5787 123.101 16.6953 122.728 16.854L122.294 15.874C122.695 15.6967 123.115 15.566 123.554 15.482C123.993 15.398 124.445 15.356 124.912 15.356ZM130.963 20.074C130.963 20.158 130.959 20.2793 130.949 20.438C130.949 20.5873 130.945 20.7507 130.935 20.928C130.926 21.096 130.917 21.2593 130.907 21.418C130.898 21.5673 130.889 21.6887 130.879 21.782L134.897 15.496H136.409V23H135.261V18.576C135.261 18.4267 135.261 18.2307 135.261 17.988C135.271 17.7453 135.28 17.5073 135.289 17.274C135.299 17.0313 135.308 16.8493 135.317 16.728L131.327 23H129.801V15.496H130.963V20.074ZM143.977 16.532H141.527V23H140.309V16.532H137.887V15.496H143.977V16.532ZM148.914 18.576C149.567 18.576 150.108 18.6553 150.538 18.814C150.967 18.9727 151.289 19.2107 151.504 19.528C151.728 19.836 151.84 20.228 151.84 20.704C151.84 21.1707 151.732 21.5767 151.518 21.922C151.312 22.2673 150.99 22.5333 150.552 22.72C150.113 22.9067 149.548 23 148.858 23H145.456V15.496H146.688V18.576H148.914ZM150.608 20.774C150.608 20.3167 150.444 20.0087 150.118 19.85C149.8 19.682 149.352 19.598 148.774 19.598H146.688V22.006H148.802C149.324 22.006 149.754 21.9127 150.09 21.726C150.435 21.5393 150.608 21.222 150.608 20.774ZM162.304 17.386C162.304 17.8527 162.164 18.2167 161.884 18.478C161.604 18.7393 161.245 18.9167 160.806 19.01V19.066C161.273 19.1313 161.679 19.2993 162.024 19.57C162.369 19.8313 162.542 20.242 162.542 20.802C162.542 21.1193 162.481 21.4133 162.36 21.684C162.248 21.9547 162.071 22.188 161.828 22.384C161.585 22.58 161.273 22.734 160.89 22.846C160.507 22.9487 160.045 23 159.504 23H156.27V15.496H159.49C160.022 15.496 160.498 15.5567 160.918 15.678C161.347 15.79 161.683 15.986 161.926 16.266C162.178 16.5367 162.304 16.91 162.304 17.386ZM161.268 20.802C161.268 20.3727 161.105 20.0647 160.778 19.878C160.451 19.6913 159.971 19.598 159.336 19.598H157.502V22.006H159.364C159.98 22.006 160.451 21.9173 160.778 21.74C161.105 21.5533 161.268 21.2407 161.268 20.802ZM161.058 17.54C161.058 17.1853 160.927 16.9287 160.666 16.77C160.414 16.602 159.999 16.518 159.42 16.518H157.502V18.576H159.196C159.803 18.576 160.265 18.492 160.582 18.324C160.899 18.156 161.058 17.8947 161.058 17.54ZM84.196 40L87.549 29.822H89.719L93.072 40H91.315L90.384 36.941L91.329 37.606H86.303L86.821 36.22H90.902L90.377 36.92L89.278 33.35L88.655 31.047H88.599L87.99 33.35L85.946 40H84.196ZM97.9335 40.084C97.4295 40.084 97.0282 40 96.7295 39.832C96.4308 39.664 96.2115 39.468 96.0715 39.244C95.9315 39.0153 95.8428 38.8147 95.8055 38.642L95.2455 38.67L95.8965 38.117C95.9292 38.2337 96.0015 38.348 96.1135 38.46C96.2255 38.5673 96.3888 38.656 96.6035 38.726C96.8182 38.7913 97.0818 38.824 97.3945 38.824C97.9172 38.824 98.3465 38.621 98.6825 38.215C99.0232 37.809 99.1935 37.13 99.1935 36.178C99.1935 35.3567 99.0348 34.7267 98.7175 34.288C98.4002 33.8447 97.9942 33.623 97.4995 33.623C97.1495 33.623 96.8602 33.672 96.6315 33.77C96.4075 33.868 96.2372 33.9823 96.1205 34.113C96.0038 34.2437 95.9292 34.3603 95.8965 34.463V33.938C95.9058 33.784 95.9455 33.6113 96.0155 33.42C96.0902 33.224 96.2092 33.035 96.3725 32.853C96.5405 32.6663 96.7598 32.5147 97.0305 32.398C97.3058 32.2767 97.6465 32.216 98.0525 32.216C98.6685 32.216 99.1865 32.3817 99.6065 32.713C100.027 33.0443 100.344 33.4993 100.559 34.078C100.778 34.652 100.888 35.3053 100.888 36.038C100.888 36.7147 100.804 37.3073 100.636 37.816C100.472 38.32 100.248 38.74 99.9635 39.076C99.6835 39.412 99.3685 39.664 99.0185 39.832C98.6685 40 98.3068 40.084 97.9335 40.084ZM94.2515 42.821V32.356H95.8755L95.8965 33.413V38.18L95.8055 38.642L95.8965 40.007V42.821H94.2515ZM106.164 40.084C105.66 40.084 105.259 40 104.96 39.832C104.661 39.664 104.442 39.468 104.302 39.244C104.162 39.0153 104.073 38.8147 104.036 38.642L103.476 38.67L104.127 38.117C104.16 38.2337 104.232 38.348 104.344 38.46C104.456 38.5673 104.619 38.656 104.834 38.726C105.049 38.7913 105.312 38.824 105.625 38.824C106.148 38.824 106.577 38.621 106.913 38.215C107.254 37.809 107.424 37.13 107.424 36.178C107.424 35.3567 107.265 34.7267 106.948 34.288C106.631 33.8447 106.225 33.623 105.73 33.623C105.38 33.623 105.091 33.672 104.862 33.77C104.638 33.868 104.468 33.9823 104.351 34.113C104.234 34.2437 104.16 34.3603 104.127 34.463V33.938C104.136 33.784 104.176 33.6113 104.246 33.42C104.321 33.224 104.44 33.035 104.603 32.853C104.771 32.6663 104.99 32.5147 105.261 32.398C105.536 32.2767 105.877 32.216 106.283 32.216C106.899 32.216 107.417 32.3817 107.837 32.713C108.257 33.0443 108.574 33.4993 108.789 34.078C109.008 34.652 109.118 35.3053 109.118 36.038C109.118 36.7147 109.034 37.3073 108.866 37.816C108.703 38.32 108.479 38.74 108.194 39.076C107.914 39.412 107.599 39.664 107.249 39.832C106.899 40 106.537 40.084 106.164 40.084ZM102.482 42.821V32.356H104.106L104.127 33.413V38.18L104.036 38.642L104.127 40.007V42.821H102.482ZM116.349 40.14C115.602 40.14 114.956 40.021 114.41 39.783C113.864 39.545 113.439 39.188 113.136 38.712C112.832 38.2313 112.674 37.6293 112.66 36.906H114.256C114.274 37.298 114.37 37.627 114.543 37.893C114.72 38.159 114.967 38.3573 115.285 38.488C115.607 38.6187 115.994 38.684 116.447 38.684C116.881 38.684 117.235 38.6327 117.511 38.53C117.786 38.4273 117.989 38.2827 118.12 38.096C118.25 37.9047 118.316 37.6807 118.316 37.424C118.316 37.144 118.236 36.9083 118.078 36.717C117.919 36.521 117.667 36.339 117.322 36.171C116.981 35.9983 116.528 35.814 115.964 35.618C115.38 35.4173 114.869 35.1723 114.431 34.883C113.997 34.5937 113.658 34.2507 113.416 33.854C113.178 33.4527 113.059 32.9837 113.059 32.447C113.059 31.5417 113.355 30.851 113.948 30.375C114.54 29.899 115.352 29.661 116.384 29.661C117.098 29.661 117.676 29.7707 118.12 29.99C118.563 30.2093 118.897 30.5337 119.121 30.963C119.349 31.3877 119.501 31.915 119.576 32.545H117.973C117.931 32.223 117.844 31.957 117.714 31.747C117.583 31.537 117.403 31.3807 117.175 31.278C116.951 31.1707 116.668 31.117 116.328 31.117C115.8 31.117 115.394 31.2243 115.11 31.439C114.825 31.649 114.683 31.964 114.683 32.384C114.683 32.622 114.727 32.839 114.816 33.035C114.909 33.231 115.098 33.4247 115.383 33.616C115.672 33.8073 116.106 34.0173 116.685 34.246C117.133 34.4233 117.553 34.5937 117.945 34.757C118.341 34.9157 118.689 35.1 118.988 35.31C119.291 35.52 119.529 35.7813 119.702 36.094C119.874 36.4067 119.963 36.8033 119.968 37.284C119.977 38.208 119.674 38.915 119.058 39.405C118.446 39.895 117.543 40.14 116.349 40.14ZM123.659 40.112C123.053 40.112 122.579 39.958 122.238 39.65C121.902 39.3373 121.734 38.8917 121.734 38.313V34.449C121.734 34.295 121.767 34.1573 121.832 34.036C121.898 33.91 121.993 33.8307 122.119 33.798L121.734 32.664V32.461L122.105 30.172H123.365V37.9C123.365 38.1707 123.424 38.3597 123.54 38.467C123.662 38.5743 123.886 38.628 124.212 38.628C124.422 38.628 124.616 38.628 124.793 38.628C124.971 38.6233 125.132 38.6187 125.276 38.614V40.021C125.034 40.063 124.768 40.0887 124.478 40.098C124.189 40.1073 123.916 40.112 123.659 40.112ZM120.733 33.798V32.356H125.29V33.798H120.733ZM129.656 40.105C128.952 40.105 128.338 39.9533 127.815 39.65C127.293 39.3467 126.887 38.901 126.597 38.313C126.308 37.7203 126.163 36.9947 126.163 36.136C126.163 35.324 126.315 34.624 126.618 34.036C126.926 33.448 127.346 32.9977 127.878 32.685C128.41 32.3677 129.012 32.209 129.684 32.209C130.412 32.209 131.035 32.3677 131.553 32.685C132.076 32.9977 132.477 33.448 132.757 34.036C133.037 34.624 133.177 35.324 133.177 36.136C133.177 36.9947 133.021 37.7203 132.708 38.313C132.4 38.901 131.98 39.3467 131.448 39.65C130.916 39.9533 130.319 40.105 129.656 40.105ZM129.684 38.698C130.221 38.698 130.66 38.4973 131 38.096C131.341 37.6947 131.511 37.0413 131.511 36.136C131.511 35.296 131.346 34.666 131.014 34.246C130.683 33.826 130.23 33.616 129.656 33.616C129.12 33.616 128.681 33.8237 128.34 34.239C128.004 34.6543 127.836 35.2867 127.836 36.136C127.836 36.9993 128.007 37.6433 128.347 38.068C128.693 38.488 129.138 38.698 129.684 38.698ZM134.748 40V32.356H136.162L136.344 35.303L136.197 34.897C136.229 34.589 136.29 34.2763 136.379 33.959C136.472 33.6417 136.603 33.35 136.771 33.084C136.943 32.818 137.163 32.6057 137.429 32.447C137.699 32.2837 138.028 32.202 138.416 32.202C138.509 32.202 138.602 32.2067 138.696 32.216C138.789 32.2253 138.875 32.2417 138.955 32.265V34.029C138.796 33.9777 138.626 33.945 138.444 33.931C138.266 33.9123 138.103 33.903 137.954 33.903C137.772 33.903 137.576 33.9403 137.366 34.015C137.156 34.085 136.962 34.1923 136.785 34.337C136.607 34.4817 136.479 34.6613 136.4 34.876V40H134.748ZM143.158 40.105C142.421 40.105 141.782 39.9557 141.24 39.657C140.704 39.3537 140.291 38.908 140.001 38.32C139.712 37.732 139.567 37.011 139.567 36.157C139.567 35.3263 139.719 34.617 140.022 34.029C140.33 33.4363 140.753 32.986 141.289 32.678C141.826 32.3653 142.442 32.209 143.137 32.209C143.823 32.209 144.409 32.3443 144.894 32.615C145.384 32.8857 145.758 33.287 146.014 33.819C146.271 34.3463 146.399 34.995 146.399 35.765C146.399 35.9143 146.395 36.038 146.385 36.136C146.381 36.234 146.374 36.3507 146.364 36.486H141.212C141.254 37.2653 141.446 37.8393 141.786 38.208C142.127 38.572 142.545 38.754 143.039 38.754C143.501 38.754 143.854 38.656 144.096 38.46C144.344 38.2593 144.502 38.0353 144.572 37.788H146.168C146.126 38.278 145.972 38.698 145.706 39.048C145.44 39.3933 145.088 39.657 144.649 39.839C144.215 40.0163 143.718 40.105 143.158 40.105ZM141.968 35.359H144.754C144.74 34.799 144.605 34.3673 144.348 34.064C144.092 33.756 143.669 33.602 143.081 33.602C142.47 33.602 142.015 33.8073 141.716 34.218C141.418 34.624 141.25 35.1863 141.212 35.905C141.25 35.695 141.329 35.5527 141.45 35.478C141.572 35.3987 141.744 35.359 141.968 35.359Z" fill="black"/>
</svg>
