<svg width="40" height="40" viewBox="0 0 40 40" fill="none" xmlns="http://www.w3.org/2000/svg">
<rect width="40" height="40" rx="20" fill="#6759FF"/>
<g clip-path="url(#clip0_82_8)">
<path d="M30.0834 21.8335C30.0834 22.3197 29.8903 22.786 29.5464 23.1299C29.2026 23.4737 28.7363 23.6668 28.2501 23.6668L22.4567 23.6668L23.3367 27.856C23.3551 27.9477 23.3642 28.0485 23.3642 28.1493C23.3642 28.5252 23.2084 28.8735 22.9609 29.121L21.9892 30.0835L15.9576 24.0518C15.6184 23.7127 15.4167 23.2543 15.4167 22.7502L15.4167 13.5835C15.4167 13.0973 15.6099 12.631 15.9537 12.2871C16.2975 11.9433 16.7639 11.7502 17.2501 11.7502L25.5001 11.7502C26.2609 11.7502 26.9117 12.2085 27.1867 12.8685L29.9551 19.331C30.0376 19.5418 30.0834 19.7618 30.0834 20.0002L30.0834 21.8335ZM9.91675 11.7502L13.5834 11.7502L13.5834 22.7502L9.91675 22.7502L9.91675 11.7502Z" fill="white"/>
</g>
<defs>
<clipPath id="clip0_82_8">
<rect width="22" height="22" fill="white" transform="matrix(1 -8.74228e-08 -8.74228e-08 -1 9 31)"/>
</clipPath>
</defs>
</svg>
