<svg width="221" height="54" viewBox="0 0 221 54" fill="none" xmlns="http://www.w3.org/2000/svg">
<path d="M49 22C49 20.4087 49.6321 18.8826 50.7574 17.7574C51.8826 16.6321 53.4087 16 55 16H67C68.5913 16 70.1174 16.6321 71.2426 17.7574C72.3679 18.8826 73 20.4087 73 22V34C73 35.5913 72.3679 37.1174 71.2426 38.2426C70.1174 39.3679 68.5913 40 67 40H55C53.4087 40 51.8826 39.3679 50.7574 38.2426C49.6321 37.1174 49 35.5913 49 34V22Z" stroke="black" stroke-width="2" stroke-linecap="round" stroke-linejoin="round"/>
<path d="M56.5 22C56.5 23.1935 56.9741 24.3381 57.818 25.182C58.6619 26.0259 59.8065 26.5 61 26.5C62.1935 26.5 63.3381 26.0259 64.182 25.182C65.0259 24.3381 65.5 23.1935 65.5 22" stroke="black" stroke-width="2" stroke-linecap="round" stroke-linejoin="round"/>
<rect x="1" y="1" width="219" height="52" rx="8" stroke="black" stroke-width="2"/>
<path d="M91.266 15.342C91.266 16.0233 91.0513 16.5647 90.622 16.966C90.1927 17.358 89.6187 17.61 88.9 17.722V17.778C89.74 17.89 90.3793 18.1513 90.818 18.562C91.2567 18.9727 91.476 19.5093 91.476 20.172C91.476 20.76 91.3267 21.278 91.028 21.726C90.7293 22.1647 90.2813 22.51 89.684 22.762C89.0867 23.014 88.34 23.14 87.444 23.14C86.9027 23.14 86.3847 23.098 85.89 23.014C85.4047 22.9393 84.952 22.7993 84.532 22.594V21.446C84.8213 21.586 85.1293 21.7073 85.456 21.81C85.792 21.9033 86.128 21.978 86.464 22.034C86.8 22.0807 87.122 22.104 87.43 22.104C88.326 22.104 89.0027 21.936 89.46 21.6C89.9267 21.264 90.16 20.788 90.16 20.172C90.16 19.5373 89.8893 19.0753 89.348 18.786C88.8067 18.4967 88.0507 18.352 87.08 18.352H85.652V17.302H87.01C87.6727 17.302 88.2187 17.2273 88.648 17.078C89.0867 16.9287 89.4133 16.7187 89.628 16.448C89.852 16.168 89.964 15.8413 89.964 15.468C89.964 14.964 89.7773 14.5767 89.404 14.306C89.0307 14.0353 88.5453 13.9 87.948 13.9C87.3227 13.9 86.8 13.9793 86.38 14.138C85.9693 14.2967 85.568 14.502 85.176 14.754L84.574 13.9C84.8353 13.704 85.134 13.5313 85.47 13.382C85.8153 13.2233 86.198 13.0973 86.618 13.004C87.038 12.9107 87.486 12.864 87.962 12.864C88.6807 12.864 89.2827 12.9713 89.768 13.186C90.2627 13.4007 90.636 13.6947 90.888 14.068C91.14 14.432 91.266 14.8567 91.266 15.342ZM96.2625 15.37C97.1771 15.37 97.8538 15.5707 98.2925 15.972C98.7311 16.3733 98.9505 17.0127 98.9505 17.89V23H98.0545L97.8165 21.936H97.7605C97.5458 22.2067 97.3218 22.4353 97.0885 22.622C96.8645 22.7993 96.6031 22.93 96.3045 23.014C96.0151 23.098 95.6605 23.14 95.2405 23.14C94.7925 23.14 94.3865 23.0607 94.0225 22.902C93.6678 22.7433 93.3878 22.5007 93.1825 22.174C92.9771 21.838 92.8745 21.418 92.8745 20.914C92.8745 20.1673 93.1685 19.5933 93.7565 19.192C94.3445 18.7813 95.2498 18.5573 96.4725 18.52L97.7465 18.478V18.03C97.7465 17.4047 97.6111 16.9707 97.3405 16.728C97.0698 16.4853 96.6871 16.364 96.1925 16.364C95.8005 16.364 95.4271 16.4247 95.0725 16.546C94.7178 16.658 94.3865 16.7887 94.0785 16.938L93.7005 16.014C94.0271 15.8367 94.4145 15.6873 94.8625 15.566C95.3105 15.4353 95.7771 15.37 96.2625 15.37ZM96.6265 19.374C95.6931 19.4113 95.0445 19.5607 94.6805 19.822C94.3258 20.0833 94.1485 20.452 94.1485 20.928C94.1485 21.348 94.2745 21.656 94.5265 21.852C94.7878 22.048 95.1191 22.146 95.5205 22.146C96.1551 22.146 96.6825 21.9733 97.1025 21.628C97.5225 21.2733 97.7325 20.732 97.7325 20.004V19.332L96.6265 19.374ZM105.846 15.496V16.532H102.5V23H101.268V15.496H105.846ZM110.895 15.356C111.819 15.356 112.561 15.678 113.121 16.322C113.69 16.966 113.975 17.9367 113.975 19.234C113.975 20.0833 113.844 20.802 113.583 21.39C113.331 21.9687 112.971 22.4073 112.505 22.706C112.047 22.9953 111.506 23.14 110.881 23.14C110.498 23.14 110.157 23.0887 109.859 22.986C109.56 22.8833 109.303 22.7527 109.089 22.594C108.883 22.426 108.706 22.244 108.557 22.048H108.473C108.491 22.2067 108.51 22.4073 108.529 22.65C108.547 22.8927 108.557 23.1027 108.557 23.28V26.36H107.325V15.496H108.333L108.501 16.518H108.557C108.706 16.3033 108.883 16.1073 109.089 15.93C109.303 15.7527 109.555 15.6127 109.845 15.51C110.143 15.4073 110.493 15.356 110.895 15.356ZM110.671 16.392C110.167 16.392 109.761 16.49 109.453 16.686C109.145 16.8727 108.921 17.1573 108.781 17.54C108.641 17.9227 108.566 18.408 108.557 18.996V19.234C108.557 19.85 108.622 20.3727 108.753 20.802C108.883 21.2313 109.103 21.558 109.411 21.782C109.728 22.006 110.157 22.118 110.699 22.118C111.156 22.118 111.529 21.992 111.819 21.74C112.117 21.488 112.337 21.1473 112.477 20.718C112.626 20.2793 112.701 19.78 112.701 19.22C112.701 18.3613 112.533 17.6753 112.197 17.162C111.87 16.6487 111.361 16.392 110.671 16.392ZM114.625 15.496H115.941L117.565 19.766C117.659 20.018 117.743 20.2607 117.817 20.494C117.901 20.7273 117.976 20.956 118.041 21.18C118.107 21.3947 118.158 21.6047 118.195 21.81H118.251C118.307 21.5767 118.396 21.2733 118.517 20.9C118.639 20.5173 118.765 20.1347 118.895 19.752L120.421 15.496H121.751L118.517 24.036C118.34 24.5027 118.13 24.9087 117.887 25.254C117.654 25.6087 117.365 25.8793 117.019 26.066C116.683 26.262 116.273 26.36 115.787 26.36C115.563 26.36 115.367 26.346 115.199 26.318C115.031 26.2993 114.887 26.276 114.765 26.248V25.268C114.868 25.2867 114.989 25.3053 115.129 25.324C115.279 25.3427 115.433 25.352 115.591 25.352C115.881 25.352 116.128 25.296 116.333 25.184C116.548 25.0813 116.73 24.9273 116.879 24.722C117.029 24.526 117.155 24.2927 117.257 24.022L117.649 23.028L114.625 15.496ZM124.912 15.356C125.481 15.356 125.976 15.4353 126.396 15.594C126.816 15.7433 127.143 15.9673 127.376 16.266C127.609 16.5553 127.726 16.91 127.726 17.33C127.726 17.7873 127.6 18.1513 127.348 18.422C127.096 18.6833 126.751 18.8747 126.312 18.996V19.052C126.611 19.136 126.886 19.2527 127.138 19.402C127.39 19.5513 127.591 19.7473 127.74 19.99C127.899 20.2327 127.978 20.5453 127.978 20.928C127.978 21.3387 127.861 21.712 127.628 22.048C127.404 22.384 127.054 22.65 126.578 22.846C126.111 23.042 125.509 23.14 124.772 23.14C124.417 23.14 124.077 23.1213 123.75 23.084C123.433 23.0467 123.143 22.9907 122.882 22.916C122.63 22.8413 122.406 22.7527 122.21 22.65V21.544C122.527 21.6933 122.901 21.8287 123.33 21.95C123.769 22.0713 124.245 22.132 124.758 22.132C125.131 22.132 125.467 22.09 125.766 22.006C126.074 21.922 126.317 21.7913 126.494 21.614C126.671 21.4273 126.76 21.1753 126.76 20.858C126.76 20.5687 126.681 20.3353 126.522 20.158C126.363 19.9713 126.125 19.8313 125.808 19.738C125.5 19.6447 125.103 19.598 124.618 19.598H123.61V18.59H124.422C125.066 18.59 125.579 18.506 125.962 18.338C126.354 18.1607 126.55 17.862 126.55 17.442C126.55 17.0873 126.401 16.8213 126.102 16.644C125.813 16.4667 125.393 16.378 124.842 16.378C124.431 16.378 124.067 16.42 123.75 16.504C123.442 16.5787 123.101 16.6953 122.728 16.854L122.294 15.874C122.695 15.6967 123.115 15.566 123.554 15.482C123.993 15.398 124.445 15.356 124.912 15.356ZM130.963 20.074C130.963 20.158 130.959 20.2793 130.949 20.438C130.949 20.5873 130.945 20.7507 130.935 20.928C130.926 21.096 130.917 21.2593 130.907 21.418C130.898 21.5673 130.889 21.6887 130.879 21.782L134.897 15.496H136.409V23H135.261V18.576C135.261 18.4267 135.261 18.2307 135.261 17.988C135.271 17.7453 135.28 17.5073 135.289 17.274C135.299 17.0313 135.308 16.8493 135.317 16.728L131.327 23H129.801V15.496H130.963V20.074ZM143.977 16.532H141.527V23H140.309V16.532H137.887V15.496H143.977V16.532ZM148.914 18.576C149.567 18.576 150.108 18.6553 150.538 18.814C150.967 18.9727 151.289 19.2107 151.504 19.528C151.728 19.836 151.84 20.228 151.84 20.704C151.84 21.1707 151.732 21.5767 151.518 21.922C151.312 22.2673 150.99 22.5333 150.552 22.72C150.113 22.9067 149.548 23 148.858 23H145.456V15.496H146.688V18.576H148.914ZM150.608 20.774C150.608 20.3167 150.444 20.0087 150.118 19.85C149.8 19.682 149.352 19.598 148.774 19.598H146.688V22.006H148.802C149.324 22.006 149.754 21.9127 150.09 21.726C150.435 21.5393 150.608 21.222 150.608 20.774ZM162.304 17.386C162.304 17.8527 162.164 18.2167 161.884 18.478C161.604 18.7393 161.245 18.9167 160.806 19.01V19.066C161.273 19.1313 161.679 19.2993 162.024 19.57C162.369 19.8313 162.542 20.242 162.542 20.802C162.542 21.1193 162.481 21.4133 162.36 21.684C162.248 21.9547 162.071 22.188 161.828 22.384C161.585 22.58 161.273 22.734 160.89 22.846C160.507 22.9487 160.045 23 159.504 23H156.27V15.496H159.49C160.022 15.496 160.498 15.5567 160.918 15.678C161.347 15.79 161.683 15.986 161.926 16.266C162.178 16.5367 162.304 16.91 162.304 17.386ZM161.268 20.802C161.268 20.3727 161.105 20.0647 160.778 19.878C160.451 19.6913 159.971 19.598 159.336 19.598H157.502V22.006H159.364C159.98 22.006 160.451 21.9173 160.778 21.74C161.105 21.5533 161.268 21.2407 161.268 20.802ZM161.058 17.54C161.058 17.1853 160.927 16.9287 160.666 16.77C160.414 16.602 159.999 16.518 159.42 16.518H157.502V18.576H159.196C159.803 18.576 160.265 18.492 160.582 18.324C160.899 18.156 161.058 17.8947 161.058 17.54ZM84.196 40L87.549 29.822H89.719L93.072 40H91.315L90.384 36.941L91.329 37.606H86.303L86.821 36.22H90.902L90.377 36.92L89.278 33.35L88.655 31.047H88.599L87.99 33.35L85.946 40H84.196ZM97.9335 40.084C97.4295 40.084 97.0282 40 96.7295 39.832C96.4308 39.664 96.2115 39.468 96.0715 39.244C95.9315 39.0153 95.8428 38.8147 95.8055 38.642L95.2455 38.67L95.8965 38.117C95.9292 38.2337 96.0015 38.348 96.1135 38.46C96.2255 38.5673 96.3888 38.656 96.6035 38.726C96.8182 38.7913 97.0818 38.824 97.3945 38.824C97.9172 38.824 98.3465 38.621 98.6825 38.215C99.0232 37.809 99.1935 37.13 99.1935 36.178C99.1935 35.3567 99.0348 34.7267 98.7175 34.288C98.4002 33.8447 97.9942 33.623 97.4995 33.623C97.1495 33.623 96.8602 33.672 96.6315 33.77C96.4075 33.868 96.2372 33.9823 96.1205 34.113C96.0038 34.2437 95.9292 34.3603 95.8965 34.463V33.938C95.9058 33.784 95.9455 33.6113 96.0155 33.42C96.0902 33.224 96.2092 33.035 96.3725 32.853C96.5405 32.6663 96.7598 32.5147 97.0305 32.398C97.3058 32.2767 97.6465 32.216 98.0525 32.216C98.6685 32.216 99.1865 32.3817 99.6065 32.713C100.027 33.0443 100.344 33.4993 100.559 34.078C100.778 34.652 100.888 35.3053 100.888 36.038C100.888 36.7147 100.804 37.3073 100.636 37.816C100.472 38.32 100.248 38.74 99.9635 39.076C99.6835 39.412 99.3685 39.664 99.0185 39.832C98.6685 40 98.3068 40.084 97.9335 40.084ZM94.2515 42.821V32.356H95.8755L95.8965 33.413V38.18L95.8055 38.642L95.8965 40.007V42.821H94.2515ZM106.164 40.084C105.66 40.084 105.259 40 104.96 39.832C104.661 39.664 104.442 39.468 104.302 39.244C104.162 39.0153 104.073 38.8147 104.036 38.642L103.476 38.67L104.127 38.117C104.16 38.2337 104.232 38.348 104.344 38.46C104.456 38.5673 104.619 38.656 104.834 38.726C105.049 38.7913 105.312 38.824 105.625 38.824C106.148 38.824 106.577 38.621 106.913 38.215C107.254 37.809 107.424 37.13 107.424 36.178C107.424 35.3567 107.265 34.7267 106.948 34.288C106.631 33.8447 106.225 33.623 105.73 33.623C105.38 33.623 105.091 33.672 104.862 33.77C104.638 33.868 104.468 33.9823 104.351 34.113C104.234 34.2437 104.16 34.3603 104.127 34.463V33.938C104.136 33.784 104.176 33.6113 104.246 33.42C104.321 33.224 104.44 33.035 104.603 32.853C104.771 32.6663 104.99 32.5147 105.261 32.398C105.536 32.2767 105.877 32.216 106.283 32.216C106.899 32.216 107.417 32.3817 107.837 32.713C108.257 33.0443 108.574 33.4993 108.789 34.078C109.008 34.652 109.118 35.3053 109.118 36.038C109.118 36.7147 109.034 37.3073 108.866 37.816C108.703 38.32 108.479 38.74 108.194 39.076C107.914 39.412 107.599 39.664 107.249 39.832C106.899 40 106.537 40.084 106.164 40.084ZM102.482 42.821V32.356H104.106L104.127 33.413V38.18L104.036 38.642L104.127 40.007V42.821H102.482ZM115.114 40.14C114.157 40.14 113.322 39.9277 112.608 39.503C111.894 39.0737 111.341 38.467 110.949 37.683C110.561 36.8943 110.368 35.9587 110.368 34.876C110.368 33.798 110.559 32.867 110.942 32.083C111.329 31.299 111.87 30.6947 112.566 30.27C113.261 29.8453 114.068 29.633 114.988 29.633C115.618 29.633 116.201 29.7497 116.738 29.983C117.274 30.2117 117.72 30.564 118.075 31.04C118.429 31.5113 118.651 32.1133 118.74 32.846H117.067C117.034 32.6127 116.959 32.3957 116.843 32.195C116.731 31.9897 116.584 31.81 116.402 31.656C116.224 31.502 116.012 31.383 115.765 31.299C115.522 31.2103 115.251 31.166 114.953 31.166C114.514 31.166 114.115 31.25 113.756 31.418C113.401 31.586 113.098 31.831 112.846 32.153C112.594 32.4703 112.4 32.86 112.265 33.322C112.129 33.7793 112.062 34.2997 112.062 34.883C112.062 35.6623 112.183 36.3297 112.426 36.885C112.668 37.4403 113.016 37.8673 113.469 38.166C113.926 38.46 114.477 38.607 115.121 38.607C115.387 38.607 115.653 38.5837 115.919 38.537C116.189 38.4903 116.441 38.4203 116.675 38.327C116.913 38.2337 117.109 38.117 117.263 37.977V36.059H115.156V34.589H118.831L118.817 38.831C118.313 39.2183 117.75 39.5333 117.13 39.776C116.514 40.0187 115.842 40.14 115.114 40.14ZM122.658 40.084C122.191 40.084 121.778 39.9977 121.419 39.825C121.06 39.6477 120.777 39.4027 120.572 39.09C120.371 38.7773 120.271 38.4157 120.271 38.005C120.271 37.5523 120.353 37.179 120.516 36.885C120.679 36.591 120.915 36.3577 121.223 36.185C121.536 36.0077 121.902 35.8723 122.322 35.779C122.621 35.7137 122.936 35.66 123.267 35.618C123.603 35.576 123.913 35.5433 124.198 35.52C124.483 35.492 124.702 35.4733 124.856 35.464V35.156C124.856 34.638 124.751 34.2507 124.541 33.994C124.336 33.7327 123.986 33.602 123.491 33.602C123.174 33.602 122.908 33.6417 122.693 33.721C122.478 33.7957 122.315 33.9403 122.203 34.155C122.096 34.365 122.037 34.673 122.028 35.079H120.523C120.472 34.421 120.565 33.882 120.803 33.462C121.046 33.0373 121.405 32.7247 121.881 32.524C122.362 32.3187 122.929 32.216 123.582 32.216C123.969 32.216 124.333 32.2603 124.674 32.349C125.019 32.433 125.325 32.58 125.591 32.79C125.857 32.9953 126.067 33.2777 126.221 33.637C126.375 33.9963 126.452 34.4513 126.452 35.002V40H124.835L124.856 38.285C124.767 38.803 124.543 39.2323 124.184 39.573C123.825 39.9137 123.316 40.084 122.658 40.084ZM123.099 38.838C123.342 38.838 123.587 38.796 123.834 38.712C124.086 38.628 124.305 38.5067 124.492 38.348C124.683 38.1893 124.805 38.0027 124.856 37.788V36.388C124.669 36.4067 124.448 36.4393 124.191 36.486C123.939 36.5327 123.722 36.5747 123.54 36.612C123.017 36.7193 122.639 36.8617 122.406 37.039C122.177 37.2117 122.063 37.4777 122.063 37.837C122.063 38.0423 122.11 38.222 122.203 38.376C122.301 38.5253 122.429 38.6397 122.588 38.719C122.747 38.7983 122.917 38.838 123.099 38.838ZM128.486 40V29.108H130.138V40H128.486ZM132.301 40V29.108H133.953V40H132.301ZM139.125 40.105C138.388 40.105 137.748 39.9557 137.207 39.657C136.67 39.3537 136.257 38.908 135.968 38.32C135.679 37.732 135.534 37.011 135.534 36.157C135.534 35.3263 135.686 34.617 135.989 34.029C136.297 33.4363 136.719 32.986 137.256 32.678C137.793 32.3653 138.409 32.209 139.104 32.209C139.79 32.209 140.376 32.3443 140.861 32.615C141.351 32.8857 141.724 33.287 141.981 33.819C142.238 34.3463 142.366 34.995 142.366 35.765C142.366 35.9143 142.361 36.038 142.352 36.136C142.347 36.234 142.34 36.3507 142.331 36.486H137.179C137.221 37.2653 137.412 37.8393 137.753 38.208C138.094 38.572 138.511 38.754 139.006 38.754C139.468 38.754 139.82 38.656 140.063 38.46C140.31 38.2593 140.469 38.0353 140.539 37.788H142.135C142.093 38.278 141.939 38.698 141.673 39.048C141.407 39.3933 141.055 39.657 140.616 39.839C140.182 40.0163 139.685 40.105 139.125 40.105ZM137.935 35.359H140.721C140.707 34.799 140.572 34.3673 140.315 34.064C140.058 33.756 139.636 33.602 139.048 33.602C138.437 33.602 137.982 33.8073 137.683 34.218C137.384 34.624 137.216 35.1863 137.179 35.905C137.216 35.695 137.296 35.5527 137.417 35.478C137.538 35.3987 137.711 35.359 137.935 35.359ZM143.853 40V32.356H145.267L145.449 35.303L145.302 34.897C145.335 34.589 145.395 34.2763 145.484 33.959C145.577 33.6417 145.708 33.35 145.876 33.084C146.049 32.818 146.268 32.6057 146.534 32.447C146.805 32.2837 147.134 32.202 147.521 32.202C147.614 32.202 147.708 32.2067 147.801 32.216C147.894 32.2253 147.981 32.2417 148.06 32.265V34.029C147.901 33.9777 147.731 33.945 147.549 33.931C147.372 33.9123 147.208 33.903 147.059 33.903C146.877 33.903 146.681 33.9403 146.471 34.015C146.261 34.085 146.067 34.1923 145.89 34.337C145.713 34.4817 145.584 34.6613 145.505 34.876V40H143.853ZM149.511 43.017V41.477H150.113C150.449 41.477 150.708 41.4467 150.89 41.386C151.077 41.3253 151.214 41.2343 151.303 41.113C151.396 40.9917 151.464 40.8447 151.506 40.672C151.557 40.4667 151.613 40.3127 151.674 40.21C151.739 40.112 151.816 40.042 151.905 40H151.359L148.867 32.363H150.701L151.576 35.849L152.283 38.376H152.346L152.983 35.856L153.858 32.363H155.678L153.221 40C153.072 40.462 152.911 40.8797 152.738 41.253C152.565 41.6263 152.365 41.9437 152.136 42.205C151.907 42.4663 151.627 42.667 151.296 42.807C150.969 42.947 150.575 43.017 150.113 43.017H149.511Z" fill="black"/>
</svg>
