<svg width="221" height="54" viewBox="0 0 221 54" fill="none" xmlns="http://www.w3.org/2000/svg">
<rect x="1" y="1" width="219" height="52" rx="8" stroke="black" stroke-width="2"/>
<path d="M78.018 27.2978L74.099 29.5158L70.584 26.0228L74.127 22.5018L78.018 24.7038C78.2476 24.8336 78.4387 25.0221 78.5716 25.25C78.7045 25.4779 78.7746 25.737 78.7746 26.0008C78.7746 26.2646 78.7045 26.5237 78.5716 26.7515C78.4387 26.9794 78.2476 27.1679 78.018 27.2978ZM57.337 14.9238C57.2631 15.104 57.2251 15.297 57.225 15.4918V36.5088C57.225 36.7258 57.27 36.9278 57.349 37.1088L68.504 26.0218L57.337 14.9238ZM69.544 24.9888L72.802 21.7508L59.45 14.1948C59.1637 14.0306 58.8305 13.9676 58.504 14.0158L69.544 24.9888ZM69.544 27.0558L58.544 37.9888C58.842 38.0248 59.156 37.9728 59.45 37.8058L72.774 30.2658L69.544 27.0558Z" fill="black"/>
<path d="M91.266 15.342C91.266 16.0233 91.0513 16.5647 90.622 16.966C90.1927 17.358 89.6187 17.61 88.9 17.722V17.778C89.74 17.89 90.3793 18.1513 90.818 18.562C91.2567 18.9727 91.476 19.5093 91.476 20.172C91.476 20.76 91.3267 21.278 91.028 21.726C90.7293 22.1647 90.2813 22.51 89.684 22.762C89.0867 23.014 88.34 23.14 87.444 23.14C86.9027 23.14 86.3847 23.098 85.89 23.014C85.4047 22.9393 84.952 22.7993 84.532 22.594V21.446C84.8213 21.586 85.1293 21.7073 85.456 21.81C85.792 21.9033 86.128 21.978 86.464 22.034C86.8 22.0807 87.122 22.104 87.43 22.104C88.326 22.104 89.0027 21.936 89.46 21.6C89.9267 21.264 90.16 20.788 90.16 20.172C90.16 19.5373 89.8893 19.0753 89.348 18.786C88.8067 18.4967 88.0507 18.352 87.08 18.352H85.652V17.302H87.01C87.6727 17.302 88.2187 17.2273 88.648 17.078C89.0867 16.9287 89.4133 16.7187 89.628 16.448C89.852 16.168 89.964 15.8413 89.964 15.468C89.964 14.964 89.7773 14.5767 89.404 14.306C89.0307 14.0353 88.5453 13.9 87.948 13.9C87.3227 13.9 86.8 13.9793 86.38 14.138C85.9693 14.2967 85.568 14.502 85.176 14.754L84.574 13.9C84.8353 13.704 85.134 13.5313 85.47 13.382C85.8153 13.2233 86.198 13.0973 86.618 13.004C87.038 12.9107 87.486 12.864 87.962 12.864C88.6807 12.864 89.2827 12.9713 89.768 13.186C90.2627 13.4007 90.636 13.6947 90.888 14.068C91.14 14.432 91.266 14.8567 91.266 15.342ZM96.2625 15.37C97.1771 15.37 97.8538 15.5707 98.2925 15.972C98.7311 16.3733 98.9505 17.0127 98.9505 17.89V23H98.0545L97.8165 21.936H97.7605C97.5458 22.2067 97.3218 22.4353 97.0885 22.622C96.8645 22.7993 96.6031 22.93 96.3045 23.014C96.0151 23.098 95.6605 23.14 95.2405 23.14C94.7925 23.14 94.3865 23.0607 94.0225 22.902C93.6678 22.7433 93.3878 22.5007 93.1825 22.174C92.9771 21.838 92.8745 21.418 92.8745 20.914C92.8745 20.1673 93.1685 19.5933 93.7565 19.192C94.3445 18.7813 95.2498 18.5573 96.4725 18.52L97.7465 18.478V18.03C97.7465 17.4047 97.6111 16.9707 97.3405 16.728C97.0698 16.4853 96.6871 16.364 96.1925 16.364C95.8005 16.364 95.4271 16.4247 95.0725 16.546C94.7178 16.658 94.3865 16.7887 94.0785 16.938L93.7005 16.014C94.0271 15.8367 94.4145 15.6873 94.8625 15.566C95.3105 15.4353 95.7771 15.37 96.2625 15.37ZM96.6265 19.374C95.6931 19.4113 95.0445 19.5607 94.6805 19.822C94.3258 20.0833 94.1485 20.452 94.1485 20.928C94.1485 21.348 94.2745 21.656 94.5265 21.852C94.7878 22.048 95.1191 22.146 95.5205 22.146C96.1551 22.146 96.6825 21.9733 97.1025 21.628C97.5225 21.2733 97.7325 20.732 97.7325 20.004V19.332L96.6265 19.374ZM105.846 15.496V16.532H102.5V23H101.268V15.496H105.846ZM110.895 15.356C111.819 15.356 112.561 15.678 113.121 16.322C113.69 16.966 113.975 17.9367 113.975 19.234C113.975 20.0833 113.844 20.802 113.583 21.39C113.331 21.9687 112.971 22.4073 112.505 22.706C112.047 22.9953 111.506 23.14 110.881 23.14C110.498 23.14 110.157 23.0887 109.859 22.986C109.56 22.8833 109.303 22.7527 109.089 22.594C108.883 22.426 108.706 22.244 108.557 22.048H108.473C108.491 22.2067 108.51 22.4073 108.529 22.65C108.547 22.8927 108.557 23.1027 108.557 23.28V26.36H107.325V15.496H108.333L108.501 16.518H108.557C108.706 16.3033 108.883 16.1073 109.089 15.93C109.303 15.7527 109.555 15.6127 109.845 15.51C110.143 15.4073 110.493 15.356 110.895 15.356ZM110.671 16.392C110.167 16.392 109.761 16.49 109.453 16.686C109.145 16.8727 108.921 17.1573 108.781 17.54C108.641 17.9227 108.566 18.408 108.557 18.996V19.234C108.557 19.85 108.622 20.3727 108.753 20.802C108.883 21.2313 109.103 21.558 109.411 21.782C109.728 22.006 110.157 22.118 110.699 22.118C111.156 22.118 111.529 21.992 111.819 21.74C112.117 21.488 112.337 21.1473 112.477 20.718C112.626 20.2793 112.701 19.78 112.701 19.22C112.701 18.3613 112.533 17.6753 112.197 17.162C111.87 16.6487 111.361 16.392 110.671 16.392ZM114.625 15.496H115.941L117.565 19.766C117.659 20.018 117.743 20.2607 117.817 20.494C117.901 20.7273 117.976 20.956 118.041 21.18C118.107 21.3947 118.158 21.6047 118.195 21.81H118.251C118.307 21.5767 118.396 21.2733 118.517 20.9C118.639 20.5173 118.765 20.1347 118.895 19.752L120.421 15.496H121.751L118.517 24.036C118.34 24.5027 118.13 24.9087 117.887 25.254C117.654 25.6087 117.365 25.8793 117.019 26.066C116.683 26.262 116.273 26.36 115.787 26.36C115.563 26.36 115.367 26.346 115.199 26.318C115.031 26.2993 114.887 26.276 114.765 26.248V25.268C114.868 25.2867 114.989 25.3053 115.129 25.324C115.279 25.3427 115.433 25.352 115.591 25.352C115.881 25.352 116.128 25.296 116.333 25.184C116.548 25.0813 116.73 24.9273 116.879 24.722C117.029 24.526 117.155 24.2927 117.257 24.022L117.649 23.028L114.625 15.496ZM124.912 15.356C125.481 15.356 125.976 15.4353 126.396 15.594C126.816 15.7433 127.143 15.9673 127.376 16.266C127.609 16.5553 127.726 16.91 127.726 17.33C127.726 17.7873 127.6 18.1513 127.348 18.422C127.096 18.6833 126.751 18.8747 126.312 18.996V19.052C126.611 19.136 126.886 19.2527 127.138 19.402C127.39 19.5513 127.591 19.7473 127.74 19.99C127.899 20.2327 127.978 20.5453 127.978 20.928C127.978 21.3387 127.861 21.712 127.628 22.048C127.404 22.384 127.054 22.65 126.578 22.846C126.111 23.042 125.509 23.14 124.772 23.14C124.417 23.14 124.077 23.1213 123.75 23.084C123.433 23.0467 123.143 22.9907 122.882 22.916C122.63 22.8413 122.406 22.7527 122.21 22.65V21.544C122.527 21.6933 122.901 21.8287 123.33 21.95C123.769 22.0713 124.245 22.132 124.758 22.132C125.131 22.132 125.467 22.09 125.766 22.006C126.074 21.922 126.317 21.7913 126.494 21.614C126.671 21.4273 126.76 21.1753 126.76 20.858C126.76 20.5687 126.681 20.3353 126.522 20.158C126.363 19.9713 126.125 19.8313 125.808 19.738C125.5 19.6447 125.103 19.598 124.618 19.598H123.61V18.59H124.422C125.066 18.59 125.579 18.506 125.962 18.338C126.354 18.1607 126.55 17.862 126.55 17.442C126.55 17.0873 126.401 16.8213 126.102 16.644C125.813 16.4667 125.393 16.378 124.842 16.378C124.431 16.378 124.067 16.42 123.75 16.504C123.442 16.5787 123.101 16.6953 122.728 16.854L122.294 15.874C122.695 15.6967 123.115 15.566 123.554 15.482C123.993 15.398 124.445 15.356 124.912 15.356ZM130.963 20.074C130.963 20.158 130.959 20.2793 130.949 20.438C130.949 20.5873 130.945 20.7507 130.935 20.928C130.926 21.096 130.917 21.2593 130.907 21.418C130.898 21.5673 130.889 21.6887 130.879 21.782L134.897 15.496H136.409V23H135.261V18.576C135.261 18.4267 135.261 18.2307 135.261 17.988C135.271 17.7453 135.28 17.5073 135.289 17.274C135.299 17.0313 135.308 16.8493 135.317 16.728L131.327 23H129.801V15.496H130.963V20.074ZM143.977 16.532H141.527V23H140.309V16.532H137.887V15.496H143.977V16.532ZM148.914 18.576C149.567 18.576 150.108 18.6553 150.538 18.814C150.967 18.9727 151.289 19.2107 151.504 19.528C151.728 19.836 151.84 20.228 151.84 20.704C151.84 21.1707 151.732 21.5767 151.518 21.922C151.312 22.2673 150.99 22.5333 150.552 22.72C150.113 22.9067 149.548 23 148.858 23H145.456V15.496H146.688V18.576H148.914ZM150.608 20.774C150.608 20.3167 150.444 20.0087 150.118 19.85C149.8 19.682 149.352 19.598 148.774 19.598H146.688V22.006H148.802C149.324 22.006 149.754 21.9127 150.09 21.726C150.435 21.5393 150.608 21.222 150.608 20.774ZM162.304 17.386C162.304 17.8527 162.164 18.2167 161.884 18.478C161.604 18.7393 161.245 18.9167 160.806 19.01V19.066C161.273 19.1313 161.679 19.2993 162.024 19.57C162.369 19.8313 162.542 20.242 162.542 20.802C162.542 21.1193 162.481 21.4133 162.36 21.684C162.248 21.9547 162.071 22.188 161.828 22.384C161.585 22.58 161.273 22.734 160.89 22.846C160.507 22.9487 160.045 23 159.504 23H156.27V15.496H159.49C160.022 15.496 160.498 15.5567 160.918 15.678C161.347 15.79 161.683 15.986 161.926 16.266C162.178 16.5367 162.304 16.91 162.304 17.386ZM161.268 20.802C161.268 20.3727 161.105 20.0647 160.778 19.878C160.451 19.6913 159.971 19.598 159.336 19.598H157.502V22.006H159.364C159.98 22.006 160.451 21.9173 160.778 21.74C161.105 21.5533 161.268 21.2407 161.268 20.802ZM161.058 17.54C161.058 17.1853 160.927 16.9287 160.666 16.77C160.414 16.602 159.999 16.518 159.42 16.518H157.502V18.576H159.196C159.803 18.576 160.265 18.492 160.582 18.324C160.899 18.156 161.058 17.8947 161.058 17.54ZM89.397 40.14C88.4403 40.14 87.605 39.9277 86.891 39.503C86.177 39.0737 85.624 38.467 85.232 37.683C84.8447 36.8943 84.651 35.9587 84.651 34.876C84.651 33.798 84.8423 32.867 85.225 32.083C85.6123 31.299 86.1537 30.6947 86.849 30.27C87.5443 29.8453 88.3517 29.633 89.271 29.633C89.901 29.633 90.4843 29.7497 91.021 29.983C91.5577 30.2117 92.0033 30.564 92.358 31.04C92.7127 31.5113 92.9343 32.1133 93.023 32.846H91.35C91.3173 32.6127 91.2427 32.3957 91.126 32.195C91.014 31.9897 90.867 31.81 90.685 31.656C90.5077 31.502 90.2953 31.383 90.048 31.299C89.8053 31.2103 89.5347 31.166 89.236 31.166C88.7973 31.166 88.3983 31.25 88.039 31.418C87.6843 31.586 87.381 31.831 87.129 32.153C86.877 32.4703 86.6833 32.86 86.548 33.322C86.4127 33.7793 86.345 34.2997 86.345 34.883C86.345 35.6623 86.4663 36.3297 86.709 36.885C86.9517 37.4403 87.2993 37.8673 87.752 38.166C88.2093 38.46 88.76 38.607 89.404 38.607C89.67 38.607 89.936 38.5837 90.202 38.537C90.4727 38.4903 90.7247 38.4203 90.958 38.327C91.196 38.2337 91.392 38.117 91.546 37.977V36.059H89.439V34.589H93.114L93.1 38.831C92.596 39.2183 92.0337 39.5333 91.413 39.776C90.797 40.0187 90.125 40.14 89.397 40.14ZM98.0331 40.105C97.3285 40.105 96.7148 39.9533 96.1921 39.65C95.6695 39.3467 95.2635 38.901 94.9741 38.313C94.6848 37.7203 94.5401 36.9947 94.5401 36.136C94.5401 35.324 94.6918 34.624 94.9951 34.036C95.3031 33.448 95.7231 32.9977 96.2551 32.685C96.7871 32.3677 97.3891 32.209 98.0611 32.209C98.7891 32.209 99.4121 32.3677 99.9301 32.685C100.453 32.9977 100.854 33.448 101.134 34.036C101.414 34.624 101.554 35.324 101.554 36.136C101.554 36.9947 101.398 37.7203 101.085 38.313C100.777 38.901 100.357 39.3467 99.8251 39.65C99.2931 39.9533 98.6958 40.105 98.0331 40.105ZM98.0611 38.698C98.5978 38.698 99.0365 38.4973 99.3771 38.096C99.7178 37.6947 99.8881 37.0413 99.8881 36.136C99.8881 35.296 99.7225 34.666 99.3911 34.246C99.0598 33.826 98.6071 33.616 98.0331 33.616C97.4965 33.616 97.0578 33.8237 96.7171 34.239C96.3811 34.6543 96.2131 35.2867 96.2131 36.136C96.2131 36.9993 96.3835 37.6433 96.7241 38.068C97.0695 38.488 97.5151 38.698 98.0611 38.698ZM106.141 40.105C105.436 40.105 104.822 39.9533 104.3 39.65C103.777 39.3467 103.371 38.901 103.082 38.313C102.792 37.7203 102.648 36.9947 102.648 36.136C102.648 35.324 102.799 34.624 103.103 34.036C103.411 33.448 103.831 32.9977 104.363 32.685C104.895 32.3677 105.497 32.209 106.169 32.209C106.897 32.209 107.52 32.3677 108.038 32.685C108.56 32.9977 108.962 33.448 109.242 34.036C109.522 34.624 109.662 35.324 109.662 36.136C109.662 36.9947 109.505 37.7203 109.193 38.313C108.885 38.901 108.465 39.3467 107.933 39.65C107.401 39.9533 106.803 40.105 106.141 40.105ZM106.169 38.698C106.705 38.698 107.144 38.4973 107.485 38.096C107.825 37.6947 107.996 37.0413 107.996 36.136C107.996 35.296 107.83 34.666 107.499 34.246C107.167 33.826 106.715 33.616 106.141 33.616C105.604 33.616 105.165 33.8237 104.825 34.239C104.489 34.6543 104.321 35.2867 104.321 36.136C104.321 36.9993 104.491 37.6433 104.832 38.068C105.177 38.488 105.623 38.698 106.169 38.698ZM114.38 43.122C113.759 43.122 113.199 43.0193 112.7 42.814C112.205 42.6133 111.822 42.3053 111.552 41.89C111.281 41.4747 111.176 40.9543 111.237 40.329H112.833C112.828 40.595 112.861 40.833 112.931 41.043C113.001 41.2577 113.148 41.428 113.372 41.554C113.596 41.68 113.936 41.743 114.394 41.743C114.79 41.743 115.094 41.687 115.304 41.575C115.518 41.463 115.663 41.2927 115.738 41.064C115.812 40.8353 115.85 40.539 115.85 40.175V38.103C115.808 38.3223 115.717 38.5533 115.577 38.796C115.437 39.0387 115.22 39.244 114.926 39.412C114.632 39.5753 114.235 39.657 113.736 39.657C113.283 39.657 112.879 39.5567 112.525 39.356C112.17 39.1553 111.869 38.8847 111.622 38.544C111.374 38.2033 111.185 37.8207 111.055 37.396C110.929 36.9667 110.866 36.5233 110.866 36.066C110.866 35.2167 111.006 34.5073 111.286 33.938C111.57 33.3687 111.937 32.9393 112.385 32.65C112.833 32.3607 113.306 32.216 113.806 32.216C114.249 32.216 114.606 32.2767 114.877 32.398C115.152 32.5193 115.367 32.6663 115.521 32.839C115.675 33.0117 115.787 33.182 115.857 33.35L115.864 32.363H117.481V40.161C117.481 40.8517 117.345 41.414 117.075 41.848C116.809 42.282 116.442 42.5993 115.976 42.8C115.509 43.0053 114.977 43.1127 114.38 43.122ZM114.303 38.334C114.653 38.334 114.935 38.2873 115.15 38.194C115.364 38.096 115.528 37.9817 115.64 37.851C115.752 37.7157 115.822 37.599 115.85 37.501V34.302C115.803 34.19 115.717 34.0803 115.591 33.973C115.465 33.8657 115.299 33.777 115.094 33.707C114.888 33.637 114.636 33.602 114.338 33.602C113.82 33.602 113.395 33.7933 113.064 34.176C112.732 34.5587 112.567 35.1583 112.567 35.975C112.567 36.717 112.73 37.2957 113.057 37.711C113.388 38.1263 113.803 38.334 114.303 38.334ZM119.545 40V29.108H121.197V40H119.545ZM126.369 40.105C125.632 40.105 124.993 39.9557 124.451 39.657C123.915 39.3537 123.502 38.908 123.212 38.32C122.923 37.732 122.778 37.011 122.778 36.157C122.778 35.3263 122.93 34.617 123.233 34.029C123.541 33.4363 123.964 32.986 124.5 32.678C125.037 32.3653 125.653 32.209 126.348 32.209C127.034 32.209 127.62 32.3443 128.105 32.615C128.595 32.8857 128.969 33.287 129.225 33.819C129.482 34.3463 129.61 34.995 129.61 35.765C129.61 35.9143 129.606 36.038 129.596 36.136C129.592 36.234 129.585 36.3507 129.575 36.486H124.423C124.465 37.2653 124.657 37.8393 124.997 38.208C125.338 38.572 125.756 38.754 126.25 38.754C126.712 38.754 127.065 38.656 127.307 38.46C127.555 38.2593 127.713 38.0353 127.783 37.788H129.379C129.337 38.278 129.183 38.698 128.917 39.048C128.651 39.3933 128.299 39.657 127.86 39.839C127.426 40.0163 126.929 40.105 126.369 40.105ZM125.179 35.359H127.965C127.951 34.799 127.816 34.3673 127.559 34.064C127.303 33.756 126.88 33.602 126.292 33.602C125.681 33.602 125.226 33.8073 124.927 34.218C124.629 34.624 124.461 35.1863 124.423 35.905C124.461 35.695 124.54 35.5527 124.661 35.478C124.783 35.3987 124.955 35.359 125.179 35.359ZM135.937 36.528C135.793 36.528 135.648 36.4767 135.503 36.374C135.359 36.2713 135.284 36.122 135.279 35.926L134.81 35.443L135.3 35.051H137.085C137.496 35.051 137.837 34.9833 138.107 34.848C138.383 34.708 138.588 34.4957 138.723 34.211C138.863 33.9263 138.933 33.5647 138.933 33.126C138.933 32.4307 138.758 31.9593 138.408 31.712C138.063 31.46 137.585 31.334 136.973 31.334H135.258L134.656 29.822C134.871 29.822 135.125 29.822 135.419 29.822C135.718 29.822 136.003 29.822 136.273 29.822C136.544 29.822 136.747 29.822 136.882 29.822C138.128 29.822 139.062 30.0787 139.682 30.592C140.303 31.1007 140.613 31.9313 140.613 33.084C140.613 33.5227 140.55 33.9473 140.424 34.358C140.303 34.764 140.102 35.1303 139.822 35.457C139.542 35.7837 139.164 36.045 138.688 36.241C138.212 36.4323 137.624 36.528 136.924 36.528H135.937ZM133.648 40V29.822H135.3V40H133.648ZM141.994 40V29.108H143.646V40H141.994ZM147.677 40.084C147.211 40.084 146.798 39.9977 146.438 39.825C146.079 39.6477 145.797 39.4027 145.591 39.09C145.391 38.7773 145.29 38.4157 145.29 38.005C145.29 37.5523 145.372 37.179 145.535 36.885C145.699 36.591 145.934 36.3577 146.242 36.185C146.555 36.0077 146.921 35.8723 147.341 35.779C147.64 35.7137 147.955 35.66 148.286 35.618C148.622 35.576 148.933 35.5433 149.217 35.52C149.502 35.492 149.721 35.4733 149.875 35.464V35.156C149.875 34.638 149.77 34.2507 149.56 33.994C149.355 33.7327 149.005 33.602 148.51 33.602C148.193 33.602 147.927 33.6417 147.712 33.721C147.498 33.7957 147.334 33.9403 147.222 34.155C147.115 34.365 147.057 34.673 147.047 35.079H145.542C145.491 34.421 145.584 33.882 145.822 33.462C146.065 33.0373 146.424 32.7247 146.9 32.524C147.381 32.3187 147.948 32.216 148.601 32.216C148.989 32.216 149.353 32.2603 149.693 32.349C150.039 32.433 150.344 32.58 150.61 32.79C150.876 32.9953 151.086 33.2777 151.24 33.637C151.394 33.9963 151.471 34.4513 151.471 35.002V40H149.854L149.875 38.285C149.787 38.803 149.563 39.2323 149.203 39.573C148.844 39.9137 148.335 40.084 147.677 40.084ZM148.118 38.838C148.361 38.838 148.606 38.796 148.853 38.712C149.105 38.628 149.325 38.5067 149.511 38.348C149.703 38.1893 149.824 38.0027 149.875 37.788V36.388C149.689 36.4067 149.467 36.4393 149.21 36.486C148.958 36.5327 148.741 36.5747 148.559 36.612C148.037 36.7193 147.659 36.8617 147.425 37.039C147.197 37.2117 147.082 37.4777 147.082 37.837C147.082 38.0423 147.129 38.222 147.222 38.376C147.32 38.5253 147.449 38.6397 147.607 38.719C147.766 38.7983 147.936 38.838 148.118 38.838ZM153.107 43.017V41.477H153.709C154.045 41.477 154.304 41.4467 154.486 41.386C154.672 41.3253 154.81 41.2343 154.899 41.113C154.992 40.9917 155.06 40.8447 155.102 40.672C155.153 40.4667 155.209 40.3127 155.27 40.21C155.335 40.112 155.412 40.042 155.501 40H154.955L152.463 32.363H154.297L155.172 35.849L155.879 38.376H155.942L156.579 35.856L157.454 32.363H159.274L156.817 40C156.667 40.462 156.506 40.8797 156.334 41.253C156.161 41.6263 155.96 41.9437 155.732 42.205C155.503 42.4663 155.223 42.667 154.892 42.807C154.565 42.947 154.171 43.017 153.709 43.017H153.107Z" fill="black"/>
</svg>
