<svg width="415" height="50" viewBox="0 0 415 50" fill="none" xmlns="http://www.w3.org/2000/svg">
<path d="M68.4659 35V14.6364H75.5852C77.0038 14.6364 78.1738 14.8816 79.0952 15.3722C80.0166 15.8561 80.7027 16.509 81.1534 17.331C81.6042 18.1463 81.8295 19.0511 81.8295 20.0455C81.8295 20.9205 81.6738 21.643 81.3622 22.2131C81.0573 22.7831 80.6529 23.2339 80.1491 23.5653C79.652 23.8968 79.1117 24.142 78.5284 24.3011V24.5C79.1515 24.5398 79.7779 24.7585 80.4077 25.1562C81.0374 25.554 81.5644 26.1241 81.9886 26.8665C82.4129 27.6089 82.625 28.517 82.625 29.5909C82.625 30.6117 82.393 31.5298 81.929 32.3452C81.465 33.1605 80.7325 33.8068 79.7315 34.2841C78.7306 34.7614 77.428 35 75.8239 35H68.4659ZM70.9318 32.8125H75.8239C77.4347 32.8125 78.5781 32.5009 79.2543 31.8778C79.937 31.2481 80.2784 30.4858 80.2784 29.5909C80.2784 28.9015 80.1027 28.2652 79.7514 27.6818C79.4001 27.0919 78.8996 26.6212 78.25 26.2699C77.6004 25.9119 76.8314 25.733 75.9432 25.733H70.9318V32.8125ZM70.9318 23.5852H75.5057C76.2481 23.5852 76.9176 23.4394 77.5142 23.1477C78.1174 22.8561 78.5947 22.4451 78.946 21.9148C79.304 21.3845 79.483 20.7614 79.483 20.0455C79.483 19.1506 79.1714 18.3916 78.5483 17.7685C77.9252 17.1387 76.9375 16.8239 75.5852 16.8239H70.9318V23.5852ZM92.5632 35.3182C91.1844 35.3182 89.9747 34.9901 88.9339 34.3338C87.8999 33.6776 87.0911 32.7595 86.5078 31.5795C85.9311 30.3996 85.6428 29.0208 85.6428 27.4432C85.6428 25.8523 85.9311 24.4635 86.5078 23.277C87.0911 22.0904 87.8999 21.169 88.9339 20.5128C89.9747 19.8565 91.1844 19.5284 92.5632 19.5284C93.942 19.5284 95.1484 19.8565 96.1825 20.5128C97.2232 21.169 98.032 22.0904 98.6087 23.277C99.192 24.4635 99.4837 25.8523 99.4837 27.4432C99.4837 29.0208 99.192 30.3996 98.6087 31.5795C98.032 32.7595 97.2232 33.6776 96.1825 34.3338C95.1484 34.9901 93.942 35.3182 92.5632 35.3182ZM92.5632 33.2102C93.6106 33.2102 94.4723 32.9418 95.1484 32.4048C95.8246 31.8679 96.325 31.1619 96.6499 30.2869C96.9747 29.4119 97.1371 28.464 97.1371 27.4432C97.1371 26.4223 96.9747 25.4711 96.6499 24.5895C96.325 23.7079 95.8246 22.9953 95.1484 22.4517C94.4723 21.9081 93.6106 21.6364 92.5632 21.6364C91.5159 21.6364 90.6541 21.9081 89.978 22.4517C89.3018 22.9953 88.8014 23.7079 88.4766 24.5895C88.1518 25.4711 87.9893 26.4223 87.9893 27.4432C87.9893 28.464 88.1518 29.4119 88.4766 30.2869C88.8014 31.1619 89.3018 31.8679 89.978 32.4048C90.6541 32.9418 91.5159 33.2102 92.5632 33.2102ZM105.412 31.5398L112.77 19.7273H115.475V35H113.128V23.1875L105.81 35H103.066V19.7273H105.412V31.5398ZM111.219 14.6364H113.407C113.407 15.7102 113.035 16.5885 112.293 17.2713C111.551 17.9541 110.543 18.2955 109.27 18.2955C108.017 18.2955 107.02 17.9541 106.277 17.2713C105.542 16.5885 105.174 15.7102 105.174 14.6364H107.361C107.361 15.1534 107.504 15.6075 107.789 15.9986C108.08 16.3897 108.574 16.5852 109.27 16.5852C109.966 16.5852 110.463 16.3897 110.762 15.9986C111.067 15.6075 111.219 15.1534 111.219 14.6364ZM117.695 21.9148V19.7273H130.104V21.9148H125.092V35H122.746V21.9148H117.695ZM135.873 31.5398L143.231 19.7273H145.936V35H143.589V23.1875L136.271 35H133.527V19.7273H135.873V31.5398ZM164.313 35.3182C162.881 35.3182 161.648 34.9801 160.614 34.304C159.58 33.6278 158.785 32.6965 158.228 31.5099C157.671 30.3234 157.393 28.9678 157.393 27.4432C157.393 25.892 157.678 24.5232 158.248 23.3366C158.825 22.1435 159.627 21.2121 160.654 20.5426C161.688 19.8665 162.895 19.5284 164.273 19.5284C165.347 19.5284 166.315 19.7273 167.177 20.125C168.039 20.5227 168.745 21.0795 169.295 21.7955C169.845 22.5114 170.186 23.3466 170.319 24.3011H167.972C167.793 23.6051 167.396 22.9886 166.779 22.4517C166.169 21.9081 165.347 21.6364 164.313 21.6364C163.398 21.6364 162.596 21.875 161.907 22.3523C161.224 22.8229 160.691 23.4891 160.306 24.3509C159.928 25.206 159.739 26.2102 159.739 27.3636C159.739 28.5436 159.925 29.571 160.296 30.446C160.674 31.321 161.204 32.0005 161.887 32.4844C162.576 32.9683 163.385 33.2102 164.313 33.2102C164.923 33.2102 165.477 33.1042 165.974 32.892C166.471 32.6799 166.892 32.375 167.237 31.9773C167.581 31.5795 167.826 31.1023 167.972 30.5455H170.319C170.186 31.447 169.858 32.259 169.335 32.9815C168.817 33.6974 168.131 34.2675 167.276 34.6918C166.428 35.1094 165.44 35.3182 164.313 35.3182ZM181.624 35V19.7273H193.636V35H191.289V21.9148H183.971V35H181.624ZM204.126 35.3182C202.747 35.3182 201.537 34.9901 200.496 34.3338C199.462 33.6776 198.654 32.7595 198.07 31.5795C197.494 30.3996 197.205 29.0208 197.205 27.4432C197.205 25.8523 197.494 24.4635 198.07 23.277C198.654 22.0904 199.462 21.169 200.496 20.5128C201.537 19.8565 202.747 19.5284 204.126 19.5284C205.504 19.5284 206.711 19.8565 207.745 20.5128C208.786 21.169 209.594 22.0904 210.171 23.277C210.754 24.4635 211.046 25.8523 211.046 27.4432C211.046 29.0208 210.754 30.3996 210.171 31.5795C209.594 32.7595 208.786 33.6776 207.745 34.3338C206.711 34.9901 205.504 35.3182 204.126 35.3182ZM204.126 33.2102C205.173 33.2102 206.035 32.9418 206.711 32.4048C207.387 31.8679 207.888 31.1619 208.212 30.2869C208.537 29.4119 208.7 28.464 208.7 27.4432C208.7 26.4223 208.537 25.4711 208.212 24.5895C207.888 23.7079 207.387 22.9953 206.711 22.4517C206.035 21.9081 205.173 21.6364 204.126 21.6364C203.078 21.6364 202.217 21.9081 201.54 22.4517C200.864 22.9953 200.364 23.7079 200.039 24.5895C199.714 25.4711 199.552 26.4223 199.552 27.4432C199.552 28.464 199.714 29.4119 200.039 30.2869C200.364 31.1619 200.864 31.8679 201.54 32.4048C202.217 32.9418 203.078 33.2102 204.126 33.2102ZM222.98 31.8182L228.31 19.7273H230.537L223.935 35H222.026L215.543 19.7273H217.73L222.98 31.8182ZM216.975 19.7273V35H214.628V19.7273H216.975ZM228.986 35V19.7273H231.333V35H228.986ZM241.833 35.3182C240.454 35.3182 239.244 34.9901 238.203 34.3338C237.169 33.6776 236.361 32.7595 235.777 31.5795C235.201 30.3996 234.912 29.0208 234.912 27.4432C234.912 25.8523 235.201 24.4635 235.777 23.277C236.361 22.0904 237.169 21.169 238.203 20.5128C239.244 19.8565 240.454 19.5284 241.833 19.5284C243.212 19.5284 244.418 19.8565 245.452 20.5128C246.493 21.169 247.301 22.0904 247.878 23.277C248.462 24.4635 248.753 25.8523 248.753 27.4432C248.753 29.0208 248.462 30.3996 247.878 31.5795C247.301 32.7595 246.493 33.6776 245.452 34.3338C244.418 34.9901 243.212 35.3182 241.833 35.3182ZM241.833 33.2102C242.88 33.2102 243.742 32.9418 244.418 32.4048C245.094 31.8679 245.595 31.1619 245.919 30.2869C246.244 29.4119 246.407 28.464 246.407 27.4432C246.407 26.4223 246.244 25.4711 245.919 24.5895C245.595 23.7079 245.094 22.9953 244.418 22.4517C243.742 21.9081 242.88 21.6364 241.833 21.6364C240.785 21.6364 239.924 21.9081 239.248 22.4517C238.571 22.9953 238.071 23.7079 237.746 24.5895C237.421 25.4711 237.259 26.4223 237.259 27.4432C237.259 28.464 237.421 29.4119 237.746 30.2869C238.071 31.1619 238.571 31.8679 239.248 32.4048C239.924 32.9418 240.785 33.2102 241.833 33.2102ZM273.176 32.8125L272.898 39.375H270.472V35H268.483V32.8125H273.176ZM252.335 19.7273H254.682V32.8125H260.449V19.7273H262.795V32.8125H268.562V19.7273H270.909V35H252.335V19.7273ZM278.618 25.2557H282.993C284.782 25.2557 286.151 25.7098 287.099 26.6179C288.047 27.526 288.521 28.6761 288.521 30.0682C288.521 30.983 288.309 31.8149 287.885 32.5639C287.46 33.3063 286.837 33.8996 286.015 34.3438C285.193 34.7812 284.186 35 282.993 35H276.589V19.7273H278.936V32.8125H282.993C283.921 32.8125 284.683 32.5672 285.279 32.0767C285.876 31.5862 286.174 30.9564 286.174 30.1875C286.174 29.3788 285.876 28.7192 285.279 28.2088C284.683 27.6984 283.921 27.4432 282.993 27.4432H278.618V25.2557ZM299.411 26.4091V28.5966H291.337V26.4091H299.411ZM293.326 19.7273V35H290.979V19.7273H293.326ZM304.104 35.3182C302.726 35.3182 301.516 34.9901 300.475 34.3338C299.441 33.6776 298.632 32.7595 298.049 31.5795C297.472 30.3996 297.184 29.0208 297.184 27.4432C297.184 25.8523 297.472 24.4635 298.049 23.277C298.632 22.0904 299.441 21.169 300.475 20.5128C301.516 19.8565 302.726 19.5284 304.104 19.5284C305.483 19.5284 306.69 19.8565 307.724 20.5128C308.764 21.169 309.573 22.0904 310.15 23.277C310.733 24.4635 311.025 25.8523 311.025 27.4432C311.025 29.0208 310.733 30.3996 310.15 31.5795C309.573 32.7595 308.764 33.6776 307.724 34.3338C306.69 34.9901 305.483 35.3182 304.104 35.3182ZM304.104 33.2102C305.152 33.2102 306.013 32.9418 306.69 32.4048C307.366 31.8679 307.866 31.1619 308.191 30.2869C308.516 29.4119 308.678 28.464 308.678 27.4432C308.678 26.4223 308.516 25.4711 308.191 24.5895C307.866 23.7079 307.366 22.9953 306.69 22.4517C306.013 21.9081 305.152 21.6364 304.104 21.6364C303.057 21.6364 302.195 21.9081 301.519 22.4517C300.843 22.9953 300.343 23.7079 300.018 24.5895C299.693 25.4711 299.531 26.4223 299.531 27.4432C299.531 28.464 299.693 29.4119 300.018 30.2869C300.343 31.1619 300.843 31.8679 301.519 32.4048C302.195 32.9418 303.057 33.2102 304.104 33.2102ZM336.957 21C336.738 20.3305 336.45 19.7306 336.092 19.2003C335.74 18.6634 335.319 18.206 334.829 17.8281C334.345 17.4503 333.795 17.1619 333.178 16.9631C332.562 16.7642 331.886 16.6648 331.15 16.6648C329.943 16.6648 328.846 16.9763 327.859 17.5994C326.871 18.2225 326.085 19.1406 325.502 20.3537C324.919 21.5668 324.627 23.0549 324.627 24.8182C324.627 26.5814 324.922 28.0696 325.512 29.2827C326.102 30.4957 326.901 31.4138 327.908 32.0369C328.916 32.66 330.049 32.9716 331.309 32.9716C332.476 32.9716 333.503 32.723 334.391 32.2259C335.286 31.7221 335.982 31.0128 336.479 30.098C336.983 29.1766 337.235 28.0928 337.235 26.8466L337.991 27.0057H331.866V24.8182H339.621V27.0057C339.621 28.6828 339.263 30.1411 338.548 31.3807C337.838 32.6203 336.857 33.5814 335.604 34.2642C334.358 34.9403 332.926 35.2784 331.309 35.2784C329.506 35.2784 327.922 34.8542 326.556 34.0057C325.197 33.1572 324.137 31.9508 323.374 30.3864C322.619 28.822 322.241 26.9659 322.241 24.8182C322.241 23.2074 322.456 21.759 322.887 20.473C323.325 19.1804 323.941 18.08 324.737 17.1719C325.532 16.2637 326.473 15.5677 327.56 15.0838C328.647 14.5999 329.844 14.358 331.15 14.358C332.224 14.358 333.225 14.5204 334.153 14.8452C335.087 15.1634 335.919 15.6174 336.648 16.2074C337.384 16.7907 337.997 17.4901 338.488 18.3054C338.978 19.1141 339.317 20.0123 339.502 21H336.957ZM349.731 35.3182C348.352 35.3182 347.143 34.9901 346.102 34.3338C345.068 33.6776 344.259 32.7595 343.676 31.5795C343.099 30.3996 342.811 29.0208 342.811 27.4432C342.811 25.8523 343.099 24.4635 343.676 23.277C344.259 22.0904 345.068 21.169 346.102 20.5128C347.143 19.8565 348.352 19.5284 349.731 19.5284C351.11 19.5284 352.316 19.8565 353.35 20.5128C354.391 21.169 355.2 22.0904 355.777 23.277C356.36 24.4635 356.652 25.8523 356.652 27.4432C356.652 29.0208 356.36 30.3996 355.777 31.5795C355.2 32.7595 354.391 33.6776 353.35 34.3338C352.316 34.9901 351.11 35.3182 349.731 35.3182ZM349.731 33.2102C350.779 33.2102 351.64 32.9418 352.316 32.4048C352.993 31.8679 353.493 31.1619 353.818 30.2869C354.143 29.4119 354.305 28.464 354.305 27.4432C354.305 26.4223 354.143 25.4711 353.818 24.5895C353.493 23.7079 352.993 22.9953 352.316 22.4517C351.64 21.9081 350.779 21.6364 349.731 21.6364C348.684 21.6364 347.822 21.9081 347.146 22.4517C346.47 22.9953 345.969 23.7079 345.645 24.5895C345.32 25.4711 345.157 26.4223 345.157 27.4432C345.157 28.464 345.32 29.4119 345.645 30.2869C345.969 31.1619 346.47 31.8679 347.146 32.4048C347.822 32.9418 348.684 33.2102 349.731 33.2102ZM366.438 35.3182C365.059 35.3182 363.85 34.9901 362.809 34.3338C361.775 33.6776 360.966 32.7595 360.383 31.5795C359.806 30.3996 359.518 29.0208 359.518 27.4432C359.518 25.8523 359.806 24.4635 360.383 23.277C360.966 22.0904 361.775 21.169 362.809 20.5128C363.85 19.8565 365.059 19.5284 366.438 19.5284C367.817 19.5284 369.023 19.8565 370.058 20.5128C371.098 21.169 371.907 22.0904 372.484 23.277C373.067 24.4635 373.359 25.8523 373.359 27.4432C373.359 29.0208 373.067 30.3996 372.484 31.5795C371.907 32.7595 371.098 33.6776 370.058 34.3338C369.023 34.9901 367.817 35.3182 366.438 35.3182ZM366.438 33.2102C367.486 33.2102 368.347 32.9418 369.023 32.4048C369.7 31.8679 370.2 31.1619 370.525 30.2869C370.85 29.4119 371.012 28.464 371.012 27.4432C371.012 26.4223 370.85 25.4711 370.525 24.5895C370.2 23.7079 369.7 22.9953 369.023 22.4517C368.347 21.9081 367.486 21.6364 366.438 21.6364C365.391 21.6364 364.529 21.9081 363.853 22.4517C363.177 22.9953 362.676 23.7079 362.352 24.5895C362.027 25.4711 361.864 26.4223 361.864 27.4432C361.864 28.464 362.027 29.4119 362.352 30.2869C362.676 31.1619 363.177 31.8679 363.853 32.4048C364.529 32.9418 365.391 33.2102 366.438 33.2102ZM383.105 41.0455C381.972 41.0455 380.998 40.8996 380.182 40.608C379.367 40.3229 378.687 39.9451 378.144 39.4744C377.607 39.0104 377.179 38.5133 376.861 37.983L378.73 36.6705C378.943 36.9489 379.211 37.267 379.536 37.625C379.861 37.9896 380.305 38.3045 380.868 38.5696C381.438 38.8414 382.184 38.9773 383.105 38.9773C384.338 38.9773 385.356 38.679 386.158 38.0824C386.96 37.4858 387.361 36.5511 387.361 35.2784V32.1761H387.162C386.99 32.4545 386.745 32.7992 386.426 33.2102C386.115 33.6146 385.664 33.9759 385.074 34.294C384.491 34.6056 383.702 34.7614 382.708 34.7614C381.475 34.7614 380.368 34.4697 379.387 33.8864C378.412 33.303 377.64 32.4545 377.07 31.3409C376.507 30.2273 376.225 28.875 376.225 27.2841C376.225 25.7197 376.5 24.3575 377.05 23.1974C377.6 22.0308 378.366 21.1293 379.347 20.4929C380.328 19.8499 381.462 19.5284 382.748 19.5284C383.742 19.5284 384.531 19.6941 385.114 20.0256C385.704 20.3504 386.155 20.7216 386.466 21.1392C386.784 21.5502 387.03 21.8883 387.202 22.1534H387.441V19.7273H389.708V35.4375C389.708 36.75 389.409 37.8172 388.813 38.6392C388.223 39.4678 387.427 40.0743 386.426 40.4588C385.432 40.8499 384.325 41.0455 383.105 41.0455ZM383.026 32.6534C383.967 32.6534 384.763 32.438 385.412 32.0071C386.062 31.5762 386.556 30.9564 386.894 30.1477C387.232 29.339 387.401 28.3712 387.401 27.2443C387.401 26.1439 387.235 25.1728 386.904 24.331C386.572 23.4891 386.082 22.8295 385.432 22.3523C384.783 21.875 383.98 21.6364 383.026 21.6364C382.032 21.6364 381.203 21.8883 380.54 22.392C379.884 22.8958 379.39 23.572 379.059 24.4205C378.734 25.2689 378.571 26.2102 378.571 27.2443C378.571 28.3049 378.737 29.2429 379.069 30.0582C379.407 30.867 379.904 31.5033 380.56 31.9673C381.223 32.4247 382.045 32.6534 383.026 32.6534ZM396.35 14.6364V35H394.003V14.6364H396.35ZM407.051 35.3182C405.58 35.3182 404.31 34.9934 403.243 34.3438C402.182 33.6875 401.364 32.7727 400.787 31.5994C400.217 30.4195 399.932 29.0473 399.932 27.483C399.932 25.9186 400.217 24.5398 400.787 23.3466C401.364 22.1468 402.166 21.2121 403.193 20.5426C404.227 19.8665 405.434 19.5284 406.812 19.5284C407.608 19.5284 408.393 19.661 409.169 19.9261C409.945 20.1913 410.651 20.6222 411.287 21.2188C411.923 21.8087 412.43 22.5909 412.808 23.5653C413.186 24.5398 413.375 25.7396 413.375 27.1648V28.1591H401.602V26.1307H410.989C410.989 25.2689 410.816 24.5 410.472 23.8239C410.134 23.1477 409.65 22.6141 409.02 22.223C408.397 21.8319 407.661 21.6364 406.812 21.6364C405.878 21.6364 405.069 21.8684 404.386 22.3324C403.71 22.7898 403.19 23.3864 402.825 24.1222C402.461 24.858 402.278 25.6468 402.278 26.4886V27.8409C402.278 28.9943 402.477 29.9721 402.875 30.7741C403.279 31.5696 403.839 32.1761 404.555 32.5938C405.271 33.0047 406.103 33.2102 407.051 33.2102C407.668 33.2102 408.224 33.1241 408.722 32.9517C409.225 32.7727 409.66 32.5076 410.024 32.1562C410.389 31.7983 410.67 31.3542 410.869 30.8239L413.136 31.4602C412.898 32.2292 412.497 32.9053 411.933 33.4886C411.37 34.0653 410.674 34.5161 409.845 34.8409C409.017 35.1591 408.085 35.3182 407.051 35.3182Z" fill="black"/>
<g clip-path="url(#clip0_66_3)">
<path d="M17.418 1.64445C12.4222 3.37753 8.1139 6.66697 5.1258 11.0296C2.1377 15.3923 0.627365 20.5981 0.816626 25.8826C1.00589 31.1671 2.88477 36.2515 6.17731 40.3893C9.46984 44.527 14.0025 47.4998 19.1094 48.871C23.2498 49.9394 27.5876 49.9863 31.7501 49.0077C35.5208 48.1607 39.007 46.349 41.8672 43.7499C44.8441 40.9622 47.0049 37.4158 48.1172 33.4921C49.3263 29.2252 49.5415 24.7379 48.7462 20.3749H25.4961V30.0194H38.961C38.6919 31.5577 38.1152 33.0258 37.2655 34.336C36.4158 35.6461 35.3104 36.7714 34.0157 37.6445C32.3715 38.7321 30.518 39.4639 28.5743 39.7929C26.6248 40.1554 24.6253 40.1554 22.6758 39.7929C20.7 39.3844 18.8309 38.5689 17.1876 37.3984C14.5475 35.5296 12.5652 32.8746 11.5235 29.8124C10.4642 26.6929 10.4642 23.3109 11.5235 20.1913C12.265 18.0047 13.4908 16.0137 15.1094 14.3671C16.9617 12.4481 19.3068 11.0765 21.8874 10.4026C24.4679 9.72865 27.1843 9.77855 29.7383 10.5468C31.7335 11.1593 33.5581 12.2294 35.0665 13.6718C36.5847 12.1614 38.1003 10.6471 39.6133 9.12882C40.3946 8.31242 41.2461 7.53507 42.0157 6.69913C39.7132 4.55646 37.0105 2.8892 34.0626 1.79289C28.6942 -0.156373 22.8203 -0.208758 17.418 1.64445Z" fill="black"/>
</g>
<defs>
<clipPath id="clip0_66_3">
<rect width="50" height="50" fill="white"/>
</clipPath>
</defs>
</svg>
