<svg width="40" height="40" viewBox="0 0 40 40" fill="none" xmlns="http://www.w3.org/2000/svg">
<rect width="40" height="40" rx="20" fill="#6759FF"/>
<path d="M30.0834 18.1665C30.0834 17.6803 29.8903 17.214 29.5464 16.8701C29.2026 16.5263 28.7363 16.3332 28.2501 16.3332H22.4567L23.3367 12.144C23.3551 12.0523 23.3642 11.9515 23.3642 11.8507C23.3642 11.4748 23.2084 11.1265 22.9609 10.879L21.9892 9.9165L15.9576 15.9482C15.6184 16.2873 15.4167 16.7457 15.4167 17.2498V26.4165C15.4167 26.9027 15.6099 27.369 15.9537 27.7129C16.2975 28.0567 16.7639 28.2498 17.2501 28.2498H25.5001C26.2609 28.2498 26.9117 27.7915 27.1867 27.1315L29.9551 20.669C30.0376 20.4582 30.0834 20.2382 30.0834 19.9998V18.1665ZM9.91675 28.2498H13.5834V17.2498H9.91675V28.2498Z" fill="white"/>
</svg>
